<mxfile host="app.diagrams.net" modified="2023-08-27T19:33:20.451Z" agent="Mozilla/5.0 (Windows NT 10.0; Win64; x64; rv:109.0) Gecko/20100101 Firefox/116.0" etag="gQXZD1bPGdNTRvoxV67O" version="21.6.9" type="device">
  <diagram name="Page-1" id="AKjfyatqTDAXh6uM6tVf">
    <mxGraphModel dx="1951" dy="1014" grid="1" gridSize="10" guides="1" tooltips="1" connect="1" arrows="1" fold="1" page="1" pageScale="1" pageWidth="1169" pageHeight="827" math="0" shadow="0">
      <root>
        <mxCell id="0" />
        <mxCell id="1" parent="0" />
        <mxCell id="BfLouLA3OJIHe9oxB47w-1" value="Database" style="strokeWidth=2;html=1;shape=mxgraph.flowchart.database;whiteSpace=wrap;" vertex="1" parent="1">
          <mxGeometry x="970" y="314" width="120" height="200" as="geometry" />
        </mxCell>
        <mxCell id="BfLouLA3OJIHe9oxB47w-4" style="edgeStyle=orthogonalEdgeStyle;rounded=0;orthogonalLoop=1;jettySize=auto;html=1;" edge="1" parent="1" source="BfLouLA3OJIHe9oxB47w-2" target="BfLouLA3OJIHe9oxB47w-3">
          <mxGeometry relative="1" as="geometry" />
        </mxCell>
        <mxCell id="BfLouLA3OJIHe9oxB47w-2" value="Client" style="html=1;whiteSpace=wrap;" vertex="1" parent="1">
          <mxGeometry x="90" y="389" width="110" height="50" as="geometry" />
        </mxCell>
        <mxCell id="BfLouLA3OJIHe9oxB47w-6" style="edgeStyle=orthogonalEdgeStyle;rounded=0;orthogonalLoop=1;jettySize=auto;html=1;entryX=0;entryY=0.5;entryDx=0;entryDy=0;" edge="1" parent="1" source="BfLouLA3OJIHe9oxB47w-3" target="BfLouLA3OJIHe9oxB47w-5">
          <mxGeometry relative="1" as="geometry" />
        </mxCell>
        <mxCell id="BfLouLA3OJIHe9oxB47w-3" value="API Gateway" style="html=1;whiteSpace=wrap;" vertex="1" parent="1">
          <mxGeometry x="300" y="324" width="90" height="180" as="geometry" />
        </mxCell>
        <mxCell id="BfLouLA3OJIHe9oxB47w-13" style="edgeStyle=orthogonalEdgeStyle;rounded=0;orthogonalLoop=1;jettySize=auto;html=1;entryX=0;entryY=0.5;entryDx=0;entryDy=0;entryPerimeter=0;exitX=0.5;exitY=0;exitDx=0;exitDy=0;" edge="1" parent="1" source="BfLouLA3OJIHe9oxB47w-5" target="BfLouLA3OJIHe9oxB47w-10">
          <mxGeometry relative="1" as="geometry" />
        </mxCell>
        <mxCell id="BfLouLA3OJIHe9oxB47w-14" value="Subscribe" style="edgeLabel;html=1;align=center;verticalAlign=middle;resizable=0;points=[];" vertex="1" connectable="0" parent="BfLouLA3OJIHe9oxB47w-13">
          <mxGeometry x="-0.438" y="2" relative="1" as="geometry">
            <mxPoint as="offset" />
          </mxGeometry>
        </mxCell>
        <mxCell id="BfLouLA3OJIHe9oxB47w-18" style="edgeStyle=orthogonalEdgeStyle;rounded=0;orthogonalLoop=1;jettySize=auto;html=1;entryX=0;entryY=0.5;entryDx=0;entryDy=0;" edge="1" parent="1" source="BfLouLA3OJIHe9oxB47w-5" target="BfLouLA3OJIHe9oxB47w-15">
          <mxGeometry relative="1" as="geometry" />
        </mxCell>
        <mxCell id="BfLouLA3OJIHe9oxB47w-5" value="Dispatcher" style="html=1;whiteSpace=wrap;" vertex="1" parent="1">
          <mxGeometry x="529" y="389" width="110" height="50" as="geometry" />
        </mxCell>
        <mxCell id="BfLouLA3OJIHe9oxB47w-7" value="External Data Provider" style="ellipse;shape=cloud;whiteSpace=wrap;html=1;" vertex="1" parent="1">
          <mxGeometry x="910" y="20" width="220" height="130" as="geometry" />
        </mxCell>
        <mxCell id="BfLouLA3OJIHe9oxB47w-9" style="edgeStyle=orthogonalEdgeStyle;rounded=0;orthogonalLoop=1;jettySize=auto;html=1;entryX=0.07;entryY=0.4;entryDx=0;entryDy=0;entryPerimeter=0;" edge="1" parent="1" source="BfLouLA3OJIHe9oxB47w-8" target="BfLouLA3OJIHe9oxB47w-7">
          <mxGeometry relative="1" as="geometry" />
        </mxCell>
        <mxCell id="BfLouLA3OJIHe9oxB47w-11" style="edgeStyle=orthogonalEdgeStyle;rounded=0;orthogonalLoop=1;jettySize=auto;html=1;entryX=0.588;entryY=0.025;entryDx=0;entryDy=0;entryPerimeter=0;" edge="1" parent="1" source="BfLouLA3OJIHe9oxB47w-8" target="BfLouLA3OJIHe9oxB47w-10">
          <mxGeometry relative="1" as="geometry" />
        </mxCell>
        <mxCell id="BfLouLA3OJIHe9oxB47w-12" value="Notify" style="edgeLabel;html=1;align=center;verticalAlign=middle;resizable=0;points=[];" vertex="1" connectable="0" parent="BfLouLA3OJIHe9oxB47w-11">
          <mxGeometry x="-0.1777" y="2" relative="1" as="geometry">
            <mxPoint as="offset" />
          </mxGeometry>
        </mxCell>
        <mxCell id="BfLouLA3OJIHe9oxB47w-8" value="Data Accessor" style="html=1;whiteSpace=wrap;" vertex="1" parent="1">
          <mxGeometry x="750" y="130" width="110" height="50" as="geometry" />
        </mxCell>
        <mxCell id="BfLouLA3OJIHe9oxB47w-10" value="Message Broker" style="strokeWidth=2;html=1;shape=mxgraph.flowchart.start_2;whiteSpace=wrap;" vertex="1" parent="1">
          <mxGeometry x="630" y="200" width="85" height="80" as="geometry" />
        </mxCell>
        <mxCell id="BfLouLA3OJIHe9oxB47w-16" style="edgeStyle=orthogonalEdgeStyle;rounded=0;orthogonalLoop=1;jettySize=auto;html=1;entryX=0;entryY=0.5;entryDx=0;entryDy=0;entryPerimeter=0;" edge="1" parent="1" source="BfLouLA3OJIHe9oxB47w-15" target="BfLouLA3OJIHe9oxB47w-1">
          <mxGeometry relative="1" as="geometry" />
        </mxCell>
        <mxCell id="BfLouLA3OJIHe9oxB47w-15" value="Database Connector" style="html=1;whiteSpace=wrap;" vertex="1" parent="1">
          <mxGeometry x="770" y="389" width="110" height="50" as="geometry" />
        </mxCell>
        <mxCell id="BfLouLA3OJIHe9oxB47w-17" value="Calculator" style="html=1;whiteSpace=wrap;" vertex="1" parent="1">
          <mxGeometry x="680" y="540" width="110" height="50" as="geometry" />
        </mxCell>
        <mxCell id="BfLouLA3OJIHe9oxB47w-21" value="" style="endArrow=open;endSize=12;dashed=1;html=1;rounded=0;entryX=0;entryY=0.5;entryDx=0;entryDy=0;exitX=0.5;exitY=1;exitDx=0;exitDy=0;" edge="1" parent="1" source="BfLouLA3OJIHe9oxB47w-5" target="BfLouLA3OJIHe9oxB47w-17">
          <mxGeometry width="160" relative="1" as="geometry">
            <mxPoint x="370" y="630" as="sourcePoint" />
            <mxPoint x="530" y="630" as="targetPoint" />
            <Array as="points">
              <mxPoint x="584" y="565" />
            </Array>
          </mxGeometry>
        </mxCell>
      </root>
    </mxGraphModel>
  </diagram>
</mxfile>
